<svg width="1878" height="1878" viewBox="0 0 1878 1878" fill="none" xmlns="http://www.w3.org/2000/svg">
<path d="M938.85 1847.7C1440.79 1847.7 1847.7 1440.79 1847.7 938.85C1847.7 436.906 1440.79 30 938.85 30C436.906 30 30 436.906 30 938.85C30 1440.79 436.906 1847.7 938.85 1847.7Z" fill="black"/>
<path d="M938.85 1847.7C1440.79 1847.7 1847.7 1440.79 1847.7 938.85C1847.7 436.906 1440.79 30 938.85 30C436.906 30 30 436.906 30 938.85C30 1440.79 436.906 1847.7 938.85 1847.7Z" fill="black"/>
<path fill-rule="evenodd" clip-rule="evenodd" d="M938.85 60C453.475 60 60 453.475 60 938.85C60 1424.23 453.475 1817.7 938.85 1817.7C1424.23 1817.7 1817.7 1424.23 1817.7 938.85C1817.7 453.475 1424.23 60 938.85 60ZM0 938.85C0 420.337 420.337 0 938.85 0C1457.36 0 1877.7 420.337 1877.7 938.85C1877.7 1457.36 1457.36 1877.7 938.85 1877.7C420.337 1877.7 0 1457.36 0 938.85Z" fill="#00A800"/>
<path d="M946.566 1056.99C946.566 1030.47 925.336 1022.89 898.04 1016.05C894.249 1015.29 886.724 1006.19 886.724 992.557C886.724 973.602 901.13 954.647 929.183 954.647C955.721 954.647 992.115 979.656 992.115 1034.99C992.115 1094.89 939.798 1131.29 895.822 1144.18L885.954 1122.2C920.028 1106.28 946.566 1085.81 946.566 1056.99ZM938.984 832.575C911.688 832.575 893.491 812.862 893.491 787.072C893.491 759.788 911.688 739.316 938.984 739.316C966.279 739.316 985.234 759.029 985.234 786.313C985.234 812.104 966.302 832.575 938.984 832.575Z" fill="white"/>
<path d="M1127.93 447.857L308.567 886.459C283.953 899.635 274.681 930.269 287.857 954.883C301.032 979.497 331.667 988.77 356.281 975.594L1175.64 536.992C1200.26 523.816 1209.53 493.181 1196.35 468.568C1183.18 443.954 1152.54 434.681 1127.93 447.857Z" fill="#00FF2B"/>
<path d="M1521.69 903.114L702.325 1341.72C677.711 1354.89 668.439 1385.53 681.615 1410.14C694.79 1434.75 725.425 1444.03 750.039 1430.85L1569.4 992.249C1594.02 979.073 1603.29 948.439 1590.11 923.825C1576.94 899.211 1546.3 889.939 1521.69 903.114Z" fill="#00FF2B"/>
<path d="M356.297 886.536C331.684 873.361 301.049 882.633 287.873 907.247C274.698 931.861 283.97 962.495 308.584 975.671L1127.95 1414.27C1152.56 1427.45 1183.2 1418.18 1196.37 1393.56C1209.55 1368.95 1200.27 1338.31 1175.66 1325.14L356.297 886.536Z" fill="#00FF2B"/>
<path d="M750.07 464.654C725.456 451.478 694.822 460.751 681.646 485.365C668.47 509.979 677.743 540.613 702.356 553.789L1521.72 992.391C1546.33 1005.57 1576.97 996.294 1590.14 971.68C1603.32 947.067 1594.05 916.432 1569.43 903.256L750.07 464.654Z" fill="#00FF2B"/>
<path d="M750.07 464.654C725.456 451.478 694.822 460.751 681.646 485.365C668.47 509.979 677.743 540.613 702.356 553.789L1521.72 992.391C1546.33 1005.57 1576.97 996.294 1590.14 971.68C1603.32 947.067 1594.05 916.432 1569.43 903.256L750.07 464.654Z" stroke="#0EFF00" stroke-miterlimit="10"/>
</svg>
